<svg width="32" height="32" viewBox="0 0 32 32" fill="none" xmlns="http://www.w3.org/2000/svg">
<path d="M0 16C0 7.16344 7.16344 0 16 0C24.8366 0 32 7.16344 32 16C32 24.8366 24.8366 32 16 32C7.16344 32 0 24.8366 0 16Z" fill="currentColor" fill-opacity="0.0784314"/>
<path d="M16 0.5C24.5604 0.5 31.5 7.43959 31.5 16C31.5 24.5604 24.5604 31.5 16 31.5C7.43959 31.5 0.5 24.5604 0.5 16C0.5 7.43959 7.43959 0.5 16 0.5Z" stroke="currentColor" stroke-opacity="0.113725"/>
<path d="M15.9998 7.875C14.5971 7.87469 13.2181 8.23757 11.9972 8.9283C10.7763 9.61904 9.75501 10.6141 9.03277 11.8166C8.31052 13.0192 7.91192 14.3882 7.87575 15.7905C7.83958 17.1928 8.16709 18.5806 8.82638 19.8188L7.93966 22.4789C7.86621 22.6992 7.85556 22.9355 7.90888 23.1615C7.96221 23.3874 8.07741 23.5941 8.24158 23.7582C8.40575 23.9224 8.61239 24.0376 8.83836 24.0909C9.06432 24.1443 9.30067 24.1336 9.52091 24.0602L12.1811 23.1734C13.2707 23.753 14.4781 24.0767 15.7116 24.12C16.945 24.1633 18.1721 23.925 19.2997 23.4232C20.4273 22.9215 21.4258 22.1694 22.2194 21.2241C23.0129 20.2789 23.5807 19.1652 23.8796 17.9678C24.1785 16.7703 24.2007 15.5205 23.9445 14.3132C23.6882 13.1058 23.1603 11.9728 22.4008 10.9999C21.6413 10.0271 20.6701 9.24009 19.561 8.69864C18.4519 8.15718 17.234 7.87551 15.9998 7.875ZM15.9998 22.875C14.7912 22.8758 13.6038 22.5575 12.5576 21.9523C12.481 21.9079 12.3959 21.8803 12.3078 21.8713C12.2197 21.8622 12.1307 21.872 12.0467 21.9L9.12482 22.875L10.099 19.9531C10.1271 19.8692 10.137 19.7802 10.1282 19.6921C10.1193 19.604 10.0918 19.5188 10.0475 19.4422C9.28964 18.132 8.98537 16.6083 9.18187 15.1075C9.37837 13.6067 10.0647 12.2127 11.1343 11.1417C12.2039 10.0708 13.597 9.38271 15.0975 9.18431C16.5981 8.98592 18.1222 9.28826 19.4334 10.0444C20.7445 10.8006 21.7695 11.9684 22.3493 13.3665C22.9291 14.7647 23.0313 16.3151 22.64 17.7773C22.2487 19.2394 21.3858 20.5316 20.1852 21.4533C18.9846 22.375 17.5134 22.8748 15.9998 22.875Z" fill="currentColor"/>
</svg>
