<svg width="32" height="32" viewBox="0 0 32 32" fill="none" xmlns="http://www.w3.org/2000/svg">
<path d="M0 16C0 7.16344 7.16344 0 16 0C24.8366 0 32 7.16344 32 16C32 24.8366 24.8366 32 16 32C7.16344 32 0 24.8366 0 16Z" fill="currentColor" fill-opacity="0.0784314"/>
<path d="M16 0.5C24.5604 0.5 31.5 7.43959 31.5 16C31.5 24.5604 24.5604 31.5 16 31.5C7.43959 31.5 0.5 24.5604 0.5 16C0.5 7.43959 7.43959 0.5 16 0.5Z" stroke="currentColor" stroke-opacity="0.113725"/>
<path d="M13.1865 14.4365L13.4941 14.376M13.1865 14.4365V14.4375M13.1865 14.4365H13.1875M13.1865 14.4365L12.8984 14.3184M13.4941 14.376C13.4982 14.3961 13.5 14.4167 13.5 14.4375C13.5 14.4993 13.4816 14.5599 13.4473 14.6113C13.4129 14.6626 13.3637 14.7029 13.3066 14.7266C13.2498 14.75 13.1873 14.756 13.127 14.7441C13.0663 14.7321 13.0105 14.7019 12.9668 14.6582M13.4941 14.376C13.4861 14.3358 13.47 14.2977 13.4473 14.2637L13.4082 14.2168M13.4941 14.376L13.1875 14.4365M12.9668 14.6582L13.1865 14.4375M12.9668 14.6582L13.1865 14.4375M12.9668 14.6582C12.9231 14.6145 12.8929 14.5587 12.8809 14.498C12.869 14.4377 12.875 14.3752 12.8984 14.3184M13.1865 14.4375L12.8984 14.3184M12.8984 14.3184L12.9297 14.2656C12.9524 14.2316 12.9794 14.2007 13.0137 14.1777L13.0684 14.1514C13.1062 14.1356 13.1461 14.125 13.1875 14.125C13.2704 14.125 13.3496 14.1582 13.4082 14.2168M18.5918 14.6582C18.5476 14.614 18.5168 14.5585 18.5049 14.498M18.5918 14.6582L18.8115 14.4375M18.5918 14.6582C18.6504 14.7168 18.7296 14.75 18.8125 14.75C18.8743 14.75 18.9349 14.7316 18.9863 14.6973C19.0376 14.6629 19.0779 14.6137 19.1016 14.5566C19.1172 14.5187 19.1221 14.4782 19.1221 14.4375L19.1191 14.377L19.0879 14.29L19.0332 14.2168M18.5918 14.6582L18.8115 14.4375M18.5049 14.498L18.8115 14.4375M18.5049 14.498L18.8115 14.4375M18.5049 14.498C18.501 14.4783 18.5 14.4579 18.5 14.4375C18.5 14.3961 18.5106 14.3562 18.5264 14.3184M13.4082 14.2168L13.1875 14.4365M13.4082 14.2168L13.1875 14.4365M18.8125 14.4365L18.5264 14.3184M18.8125 14.4365L18.5527 14.2637M18.8125 14.4365L19.0332 14.2168M18.8125 14.4365H18.8115L18.6934 14.1484M18.8125 14.4365L18.5264 14.3184M18.8125 14.4365L19.0332 14.2168M18.5264 14.3184C18.5341 14.2997 18.5414 14.2806 18.5527 14.2637M18.5527 14.2637L18.8105 14.4355L18.6934 14.1484M18.5527 14.2637L18.6143 14.1963C18.6379 14.1768 18.6647 14.1603 18.6934 14.1484M19.0332 14.2168C18.9895 14.1731 18.9337 14.1429 18.873 14.1309C18.843 14.1249 18.8124 14.124 18.7822 14.127L18.6934 14.1484" fill="currentColor" stroke="currentColor" stroke-width="2.5"/>
</svg>
